<?xml version="1.0" standalone="no"?>
<!DOCTYPE svg PUBLIC "-//W3C//DTD SVG 20010904//EN"
 "http://www.w3.org/TR/2001/REC-SVG-20010904/DTD/svg10.dtd">
<svg version="1.0" xmlns="http://www.w3.org/2000/svg"
 width="512.000000pt" height="512.000000pt" viewBox="0 0 512.000000 512.000000"
 preserveAspectRatio="xMidYMid meet">
<metadata>
Created by potrace 1.11, written by Peter Selinger 2001-2013
</metadata>
<g transform="translate(0.000000,512.000000) scale(0.100000,-0.100000)"
fill="#000000" stroke="none">
<path d="M2320 5109 c-491 -47 -981 -246 -1366 -557 -599 -482 -954 -1224
-954 -1992 0 -577 204 -1155 568 -1606 482 -599 1224 -954 1992 -954 577 0
1155 204 1606 568 599 482 954 1224 954 1992 0 577 -204 1155 -568 1606 -433
538 -1071 879 -1767 944 -125 11 -340 11 -465 -1z m-362 -1374 c62 -19 191
-118 230 -178 24 -36 27 -52 30 -144 l4 -103 -141 0 -141 0 0 59 c0 67 -19 99
-74 125 -30 14 -84 16 -421 16 -421 0 -431 -1 -475 -58 -19 -23 -20 -41 -20
-346 0 -235 4 -328 13 -345 6 -14 32 -35 56 -48 l44 -23 456 0 456 0 51 -24
c81 -37 187 -135 213 -195 21 -51 22 -58 19 -454 -3 -393 -3 -403 -25 -443
-27 -50 -139 -147 -208 -180 l-50 -24 -530 0 c-608 0 -563 -6 -691 100 -96 80
-116 119 -122 241 l-5 99 147 0 146 0 0 -68 c0 -72 11 -92 67 -121 35 -18 886
-15 921 3 65 34 63 17 60 411 l-3 358 -38 31 -39 31 -481 5 c-551 6 -492 -4
-629 108 -113 93 -108 66 -108 530 0 397 0 399 23 443 30 56 174 174 237 194
70 21 955 21 1028 0z m1245 -325 c280 -525 347 -655 347 -673 0 -10 5 -17 10
-17 6 0 10 7 10 17 0 18 67 148 347 673 l179 335 152 3 c84 1 152 1 152 -1 0
-2 -133 -244 -296 -538 -163 -294 -305 -551 -316 -572 l-19 -38 355 -608 c196
-335 356 -611 356 -615 0 -3 -69 -6 -153 -6 l-154 0 -294 523 c-161 287 -298
537 -304 555 -5 17 -12 32 -15 32 -3 0 -10 -15 -15 -32 -6 -18 -143 -268 -304
-556 l-294 -522 -154 0 c-84 0 -153 3 -153 6 0 4 160 280 356 615 l355 608
-19 38 c-11 21 -153 278 -316 572 -163 294 -296 536 -296 538 0 2 68 2 152 1
l152 -3 179 -335z"/>
</g>
</svg>
